# xmcd
#
# Track frame offsets: 
#        150
#        19832
#        39113
#        53899
#        68447
#        81935
#
# Disc length: 1349 seconds
#
# Revision: 0
# Processed by: cddbd v1.5.2PL0 Copyright (c) Steve Scherf et al.
# Submitted via: ExactAudioCopy v1.1
#
DISCID=3e054306
DTITLE=Walter DeBarr - We Fall,We Break
DYEAR=2019
DGENRE=Indie
TTITLE0=Wicked Eyes
TTITLE1=Best I Can
TTITLE2=We Fall,We Break
TTITLE3=Quicksand
TTITLE4=I Won't
TTITLE5=Oceans
EXTD=
EXTT0=
EXTT1=
EXTT2=
EXTT3=
EXTT4=
EXTT5=
PLAYORDER=
